#!OML:ASF H:\Terrain\Patient Classification 1\Walking\liu\liu.ASF
:FULLY-SPECIFIED
:DEGREES
65
root 9.083530 16.306601 -27.322100 5.199890 -11.790200 0.863372
lowerback -49.227699 4.105820 -25.830900
upperback -22.874500 6.351310 24.549000
thorax 3.486160 3.452260 40.144001
lowerneck -224.601990 -39.264400 -116.070999
upperneck 179.564987 -45.573700 128.037994
head 99.959602 -14.534201 58.220402
rclavicle -0.000000 -0.000000
rhumerus -432.424988 130.583008 -908.541016
rradius 380.760010
rwrist -195.820999
rhand -297.988007 -261.338013
rfingers 71.250198
rthumb -31.231501 -560.906982
lclavicle -0.000000 -0.000000
lhumerus -391.166016 -62.009602 886.856995
lradius 210.494995
lwrist -32.586399
lhand 8.418180 -175.901001
lfingers 71.250198
lthumb 263.963989 105.923004
rfemur -42.529800 -7.481410 153.912994
rtibia 573.242004
rfoot 63.637901 -105.036003
rtoes -42.584000
lfemur -266.291992 76.821602 -242.052994
ltibia 322.606995
lfoot -104.348000 77.655502
ltoes -34.749401
66
root 9.103330 16.334600 -27.204800 5.220490 -11.602000 0.617442
lowerback -49.903000 3.164560 -22.544100
upperback -21.851799 4.942540 25.390400
thorax 5.067500 2.685470 39.097099
lowerneck -223.570007 -40.371700 -115.965996
upperneck 176.839005 -46.839600 127.257004
head 98.963501 -15.233700 57.603699
rclavicle 0.000000 -0.000000
rhumerus -430.462006 128.988007 -906.199036
rradius 381.096985
rwrist -196.844009
rhand -298.341003 -256.354004
rfingers 71.250198
rthumb -31.572599 -555.916992
lclavicle 0.000000 -0.000000
lhumerus -383.314026 -59.385601 883.161987
lradius 211.612000
lwrist -38.174000
lhand 6.720590 -177.115005
lfingers 71.250198
lthumb 262.338989 104.952003
rfemur -54.651398 -8.279710 159.138000
rtibia 585.183960
rfoot 50.314297 -107.509003
rtoes -22.857399
lfemur -258.451996 73.643196 -240.158997
ltibia 316.429993
lfoot -103.014999 79.715897
ltoes -43.682400
67
root 9.119440 16.354000 -27.100300 5.258760 -11.334100 0.578659
lowerback -51.215702 1.974370 -21.931801
upperback -20.229500 3.325380 25.757101
thorax 7.608200 1.807920 39.064800
lowerneck -225.664993 -40.727402 -115.427002
upperneck 176.609009 -46.875603 125.612000
head 99.200500 -15.330400 56.896202
rclavicle -0.000000 0.000000
rhumerus -427.868988 129.230011 -904.558044
rradius 382.234985
rwrist -198.619995
rhand -298.255005 -256.699005
rfingers 71.250198
rthumb -31.489601 -556.263977
lclavicle -0.000000 0.000000
lhumerus -374.796997 -69.769501 885.839966
lradius 214.248016
lwrist -30.486700
lhand 5.075870 -173.638000
lfingers 71.250198
lthumb 260.765015 108.662003
rfemur -68.011002 -9.891970 162.668991
rtibia 596.203979
rfoot 38.748600 -106.796997
rtoes -26.170700
lfemur -251.904999 70.911896 -240.520996
ltibia 310.535004
lfoot -102.192001 80.319000
ltoes -40.999496
68
root 9.136780 16.371700 -26.986900 5.332770 -10.993900 0.868951
lowerback -52.744999 0.449102 -24.912399
upperback -20.340000 1.461930 25.491100
thorax 8.491360 0.871343 40.383202
lowerneck -226.199005 -39.539497 -116.127998
upperneck 178.625000 -45.262299 126.317993
head 99.820206 -14.538099 57.610001
rclavicle -0.000000 -0.000000
rhumerus -428.246002 129.281998 -903.406982
rradius 383.708984
rwrist -199.356995
rhand -300.018005 -261.931000
rfingers 71.250198
rthumb -33.192402 -561.471008
lclavicle -0.000000 -0.000000
lhumerus -369.275024 -81.892593 889.901001
lradius 216.354004
lwrist -18.492701
lhand -0.009089 -175.612000
lfingers 71.250198
lthumb 255.895004 107.397003
rfemur -81.273407 -12.622800 162.176987
rtibia 606.024048
rfoot 27.555000 -102.405006
rtoes -45.567497
lfemur -246.063995 67.127098 -244.794998
ltibia 305.207001
lfoot -102.470001 80.573898
ltoes -42.149300
69
root 9.154240 16.392799 -26.870399 5.392540 -10.605600 1.068640
lowerback -53.387100 -1.154750 -26.525900
upperback -21.021299 -0.575372 25.054501
thorax 8.326110 -0.130604 40.725197
lowerneck -226.201996 -38.722000 -115.741997
upperneck 181.392990 -44.579399 126.655998
head 100.705002 -14.157600 57.881096
rclavicle -0.000000 -0.000000
rhumerus -429.663025 127.672005 -902.121948
rradius 386.220032
rwrist -199.153000
rhand -300.666992 -261.255005
rfingers 71.250198
rthumb -33.818901 -560.783997
lclavicle -0.000000 -0.000000
lhumerus -362.686005 -85.448105 888.339966
lradius 216.177994
lwrist -19.315500
lhand -4.303350 -183.153000
lfingers 71.250198
lthumb 251.781006 100.440994
rfemur -93.771896 -14.509400 163.036011
rtibia 614.424011
rfoot 11.885099 -100.235992
rtoes -63.948303
lfemur -240.585999 62.967102 -248.076996
ltibia 300.518005
lfoot -103.108994 81.332397
ltoes -49.083000
70
root 9.173080 16.405800 -26.762699 5.254440 -10.254700 0.980677
lowerback -51.822800 -2.238170 -24.578600
upperback -20.097799 -2.142670 25.006800
thorax 8.544110 -0.939637 39.474899
lowerneck -228.184998 -38.852898 -115.488998
upperneck 184.918991 -45.057903 127.076996
head 102.396004 -14.252100 58.074799
rclavicle -0.000000 -0.000000
rhumerus -428.916016 126.474998 -901.101013
rradius 387.454987
rwrist -201.257996
rhand -303.083984 -247.518005
rfingers 71.250198
rthumb -36.153000 -547.009033
lclavicle -0.000000 -0.000000
lhumerus -353.645996 -89.584595 886.095947
lradius 216.511993
lwrist -21.906601
lhand -6.769720 -182.588989
lfingers 71.250198
lthumb 249.417999 101.334999
rfemur -104.391006 -14.612700 167.548004
rtibia 621.782959
rfoot -5.879150 -105.447998
rtoes -84.811699
lfemur -233.204010 58.736801 -247.644012
ltibia 296.429993
lfoot -104.933006 82.796600
ltoes -52.145401
71
root 9.191400 16.415600 -26.648701 5.088980 -10.130800 0.888286
lowerback -50.766403 -2.555310 -23.235800
upperback -19.014200 -2.662740 25.837400
thorax 9.115250 -1.227720 39.545502
lowerneck -226.587006 -39.662498 -118.000000
upperneck 184.199005 -45.973400 129.246994
head 102.106003 -14.661400 59.142700
rclavicle 0.000000 0.000000
rhumerus -428.303986 127.097000 -899.375000
rradius 387.027008
rwrist -204.622009
rhand -305.324005 -234.566986
rfingers 71.250198
rthumb -38.315899 -534.020020
lclavicle 0.000000 0.000000
lhumerus -346.262024 -92.281906 885.509033
lradius 219.942001
lwrist -21.860600
lhand -5.956250 -176.193008
lfingers 71.250198
lthumb 250.196991 107.622002
rfemur -114.193001 -12.252501 171.419998
rtibia 628.005005
rfoot -26.772100 -108.459000
rtoes -96.676903
lfemur -225.265991 56.384003 -247.281006
ltibia 293.402985
lfoot -108.457001 84.372795
ltoes -51.983799
72
root 9.201030 16.424000 -26.545000 5.214920 -9.949840 1.147620
lowerback -51.608501 -3.660330 -26.860901
upperback -20.057098 -3.945820 26.129702
thorax 8.640010 -1.834830 41.831799
lowerneck -224.405991 -39.592800 -118.088997
upperneck 183.878006 -45.934601 128.737000
head 101.571999 -14.776501 58.939800
rclavicle -0.000000 -0.000000
rhumerus -430.928009 128.306000 -898.177002
rradius 389.536011
rwrist -207.070999
rhand -303.911987 -230.424988
rfingers 71.250198
rthumb -36.951900 -529.901978
lclavicle -0.000000 -0.000000
lhumerus -341.304016 -93.455894 884.523987
lradius 224.859009
lwrist -21.576401
lhand -4.518280 -172.579987
lfingers 71.250198
lthumb 251.574997 111.042007
rfemur -128.141006 -10.627900 171.806000
rtibia 633.126953
rfoot -42.237099 -107.200005
rtoes -103.830002
lfemur -221.608002 55.243801 -251.170990
ltibia 290.513000
lfoot -110.751999 84.366196
ltoes -49.147102
73
root 9.209920 16.424700 -26.448700 5.326930 -9.585450 1.406350
lowerback -52.035599 -5.102120 -29.813499
upperback -20.846401 -5.708100 25.816000
thorax 8.247410 -2.687120 43.077698
lowerneck -223.325012 -38.905399 -115.234001
upperneck 184.384003 -45.303703 125.457001
head 101.295006 -14.681100 57.320499
rclavicle -0.000000 0.000000
rhumerus -433.110016 128.322006 -897.510986
rradius 393.260986
rwrist -209.759995
rhand -303.330017 -225.664001
rfingers 71.250198
rthumb -36.390400 -525.150024
lclavicle -0.000000 0.000000
lhumerus -334.772980 -99.114502 884.010986
lradius 228.204987
lwrist -18.172600
lhand -5.191700 -170.848999
lfingers 71.250198
lthumb 250.930008 112.862999
rfemur -142.274002 -11.077700 172.691010
rtibia 636.561035
rfoot -52.925800 -108.136993
rtoes -114.992996
lfemur -217.861008 53.301903 -254.957001
ltibia 287.029999
lfoot -112.566994 83.625404
ltoes -47.938499
74
root 9.227340 16.430000 -26.332899 5.100230 -9.410190 1.564650
lowerback -50.634300 -5.508570 -31.084801
upperback -20.155001 -6.222430 26.073700
thorax 8.241631 -2.950670 44.042400
lowerneck -219.662003 -38.612499 -113.922005
upperneck 181.783997 -44.821701 122.666000
head 99.522896 -14.787600 56.000900
rclavicle 0.000000 0.000000
rhumerus -433.546997 129.224991 -895.635010
rradius 394.669006
rwrist -212.266998
rhand -302.709015 -225.046005
rfingers 71.250198
rthumb -35.790298 -524.542969
lclavicle 0.000000 0.000000
lhumerus -327.065002 -102.076996 883.464966
lradius 229.561996
lwrist -17.756800
lhand -6.423690 -172.409988
lfingers 71.250198
lthumb 249.750000 111.466995
rfemur -151.267990 -10.842600 173.113998
rtibia 638.548035
rfoot -69.204399 -107.899002
rtoes -108.837006
lfemur -209.029999 50.154099 -257.402008
ltibia 283.290985
lfoot -117.264999 85.565399
ltoes -41.146500
75
root 9.244010 16.436300 -26.215500 4.888100 -9.380000 1.718490
lowerback -49.124397 -5.906660 -32.766300
upperback -19.917200 -6.714130 26.488400
thorax 7.712920 -3.182810 45.409798
lowerneck -218.938004 -37.618698 -111.549995
upperneck 183.236008 -43.664097 119.522003
head 99.599106 -14.456100 54.646603
rclavicle -0.000000 0.000000
rhumerus -435.010010 132.197998 -894.541016
rradius 396.031006
rwrist -214.244995
rhand -299.177002 -230.070007
rfingers 71.250198
rthumb -32.380100 -529.622009
lclavicle -0.000000 0.000000
lhumerus -319.884003 -100.456001 881.026978
lradius 230.625000
lwrist -21.834400
lhand -4.376610 -175.657990
lfingers 71.250198
lthumb 251.710999 107.945007
rfemur -160.384995 -8.780400 173.453995
rtibia 640.372009
rfoot -87.632507 -108.991005
rtoes -100.247002
lfemur -200.681000 46.972000 -259.721008
ltibia 280.451996
lfoot -126.666000 88.655998
ltoes -17.358601
76
root 9.253820 16.436199 -26.104099 4.809110 -9.299940 1.633040
lowerback -49.290199 -6.253990 -31.624100
upperback -19.335199 -7.229050 26.581800
thorax 8.448360 -3.470670 44.824200
lowerneck -222.984009 -39.055401 -118.614998
upperneck 188.966003 -44.938202 125.993004
head 102.906998 -14.719501 58.338200
rclavicle 0.000000 0.000000
rhumerus -435.867004 133.098999 -894.555969
rradius 397.496002
rwrist -215.760986
rhand -297.477997 -229.524002
rfingers 71.250198
rthumb -30.739000 -529.098999
lclavicle 0.000000 0.000000
lhumerus -312.675995 -103.459000 878.468018
lradius 233.889999
lwrist -20.330400
lhand 6.052020 -176.264984
lfingers 71.250198
lthumb 261.699005 105.896996
rfemur -170.692001 -5.298420 177.376999
rtibia 641.005981
rfoot -105.052002 -113.875000
rtoes -107.091995
lfemur -193.852997 44.369400 -258.983002
ltibia 277.914001
lfoot -139.253998 89.936996
ltoes 22.251501
